<?xml version="1.0" encoding="UTF-8" standalone="no"?><svg xmlns="http://www.w3.org/2000/svg" xmlns:xlink="http://www.w3.org/1999/xlink" contentStyleType="text/css" height="291px" preserveAspectRatio="none" style="width:365px;height:291px;background:#FFFFFF;" version="1.1" viewBox="0 0 365 291" width="365px" zoomAndPan="magnify"><defs/><g><!--cluster ual.hmis.sesion05.ejercicio2--><g id="cluster_ual.hmis.sesion05.ejercicio2"><path d="M8.5,130 L207.5,130 A3.75,3.75 0 0 1 210,132.5 L217,153.6094 L355.5,153.6094 A2.5,2.5 0 0 1 358,156.1094 L358,262.5 A2.5,2.5 0 0 1 355.5,265 L8.5,265 A2.5,2.5 0 0 1 6,262.5 L6,132.5 A2.5,2.5 0 0 1 8.5,130 " fill="none" style="stroke:#000000;stroke-width:1.5;"/><line style="stroke:#000000;stroke-width:1.5;" x1="6" x2="217" y1="153.6094" y2="153.6094"/><text fill="#000000" font-family="sans-serif" font-size="14" font-weight="bold" lengthAdjust="spacing" textLength="198" x="10" y="146.5332">ual.hmis.sesion05.ejercicio2</text></g><!--cluster java.lang--><g id="cluster_java.lang"><path d="M131.5,6 L195.5,6 A3.75,3.75 0 0 1 198,8.5 L205,29.6094 L232.5,29.6094 A2.5,2.5 0 0 1 235,32.1094 L235,103.5 A2.5,2.5 0 0 1 232.5,106 L131.5,106 A2.5,2.5 0 0 1 129,103.5 L129,8.5 A2.5,2.5 0 0 1 131.5,6 " fill="none" style="stroke:#000000;stroke-width:1.5;"/><line style="stroke:#000000;stroke-width:1.5;" x1="129" x2="205" y1="29.6094" y2="29.6094"/><text fill="#000000" font-family="sans-serif" font-size="14" font-weight="bold" lengthAdjust="spacing" textLength="63" x="133" y="22.5332">java.lang</text></g><!--class ual.hmis.sesion05.ejercicio2.Ejercicio2--><a href="Ejercicio2.html" target="_top" title="Ejercicio2.html" xlink:actuate="onRequest" xlink:href="Ejercicio2.html" xlink:show="new" xlink:title="Ejercicio2.html" xlink:type="simple"><g id="elem_ual.hmis.sesion05.ejercicio2.Ejercicio2"><rect codeLine="3" fill="#F1F1F1" height="83.2188" id="ual.hmis.sesion05.ejercicio2.Ejercicio2" rx="2.5" ry="2.5" style="stroke:#181818;stroke-width:0.5;" width="319" x="22.5" y="166"/><ellipse cx="147.25" cy="182" fill="#ADD1B2" rx="11" ry="11" style="stroke:#181818;stroke-width:1.0;"/><path d="M150.0156,177.875 Q150.1719,177.6563 150.3594,177.5469 Q150.5469,177.4375 150.7656,177.4375 Q151.1406,177.4375 151.375,177.7031 Q151.6094,177.9531 151.6094,178.5625 L151.6094,180.0156 Q151.6094,180.625 151.375,180.8906 Q151.1406,181.1563 150.7656,181.1563 Q150.4219,181.1563 150.2188,180.9531 Q150.0156,180.7656 149.9063,180.25 Q149.8594,179.8906 149.6719,179.7031 Q149.3438,179.3281 148.7344,179.1094 Q148.125,178.8906 147.5,178.8906 Q146.7344,178.8906 146.0938,179.2188 Q145.4688,179.5469 144.9688,180.2969 Q144.4844,181.0469 144.4844,182.0781 L144.4844,183.1719 Q144.4844,184.4063 145.375,185.2344 Q146.2656,186.0469 147.8594,186.0469 Q148.7969,186.0469 149.4531,185.7969 Q149.8438,185.6406 150.2656,185.2031 Q150.5313,184.9375 150.6719,184.8594 Q150.8281,184.7813 151.0313,184.7813 Q151.3594,184.7813 151.6094,185.0469 Q151.875,185.2969 151.875,185.6406 Q151.875,185.9844 151.5313,186.3906 Q151.0313,186.9688 150.2344,187.2969 Q149.1563,187.75 147.8594,187.75 Q146.3438,187.75 145.1406,187.125 Q144.1563,186.625 143.4688,185.5625 Q142.7813,184.4844 142.7813,183.2031 L142.7813,182.0469 Q142.7813,180.7188 143.3906,179.5781 Q144.0156,178.4219 145.1094,177.8125 Q146.2031,177.1875 147.4375,177.1875 Q148.1719,177.1875 148.8125,177.3594 Q149.4688,177.5156 150.0156,177.875 Z " fill="#000000"/><text fill="#000000" font-family="sans-serif" font-size="14" lengthAdjust="spacing" textLength="61" x="167.75" y="187.7285">Ejercicio2</text><line style="stroke:#181818;stroke-width:0.5;" x1="23.5" x2="340.5" y1="198" y2="198"/><line style="stroke:#181818;stroke-width:0.5;" x1="23.5" x2="340.5" y1="206" y2="206"/><ellipse cx="33.5" cy="220.3047" fill="#84BE84" rx="3" ry="3" style="stroke:#038048;stroke-width:1.0;"/><text fill="#000000" font-family="sans-serif" font-size="14" lengthAdjust="spacing" textLength="181" x="42.5" y="224.5332">login(String, String): boolean</text><ellipse cx="33.5" cy="237.9141" fill="#84BE84" rx="3" ry="3" style="stroke:#038048;stroke-width:1.0;"/><text fill="#000000" font-family="sans-serif" font-size="14" lengthAdjust="spacing" textLength="293" x="42.5" y="242.1426">compruebaLoginEnBD(String, String): boolean</text></g></a><!--class java.lang.Object--><g id="elem_java.lang.Object"><rect codeLine="12" fill="#F1F1F1" height="48" id="java.lang.Object" rx="2.5" ry="2.5" style="stroke:#181818;stroke-width:0.5;" width="73" x="145.5" y="42"/><ellipse cx="160.5" cy="58" fill="#ADD1B2" rx="11" ry="11" style="stroke:#181818;stroke-width:1.0;"/><path d="M163.2656,53.875 Q163.4219,53.6563 163.6094,53.5469 Q163.7969,53.4375 164.0156,53.4375 Q164.3906,53.4375 164.625,53.7031 Q164.8594,53.9531 164.8594,54.5625 L164.8594,56.0156 Q164.8594,56.625 164.625,56.8906 Q164.3906,57.1563 164.0156,57.1563 Q163.6719,57.1563 163.4688,56.9531 Q163.2656,56.7656 163.1563,56.25 Q163.1094,55.8906 162.9219,55.7031 Q162.5938,55.3281 161.9844,55.1094 Q161.375,54.8906 160.75,54.8906 Q159.9844,54.8906 159.3438,55.2188 Q158.7188,55.5469 158.2188,56.2969 Q157.7344,57.0469 157.7344,58.0781 L157.7344,59.1719 Q157.7344,60.4063 158.625,61.2344 Q159.5156,62.0469 161.1094,62.0469 Q162.0469,62.0469 162.7031,61.7969 Q163.0938,61.6406 163.5156,61.2031 Q163.7813,60.9375 163.9219,60.8594 Q164.0781,60.7813 164.2813,60.7813 Q164.6094,60.7813 164.8594,61.0469 Q165.125,61.2969 165.125,61.6406 Q165.125,61.9844 164.7813,62.3906 Q164.2813,62.9688 163.4844,63.2969 Q162.4063,63.75 161.1094,63.75 Q159.5938,63.75 158.3906,63.125 Q157.4063,62.625 156.7188,61.5625 Q156.0313,60.4844 156.0313,59.2031 L156.0313,58.0469 Q156.0313,56.7188 156.6406,55.5781 Q157.2656,54.4219 158.3594,53.8125 Q159.4531,53.1875 160.6875,53.1875 Q161.4219,53.1875 162.0625,53.3594 Q162.7188,53.5156 163.2656,53.875 Z " fill="#000000"/><text fill="#000000" font-family="sans-serif" font-size="14" lengthAdjust="spacing" textLength="41" x="174.5" y="63.7285">Object</text><line style="stroke:#181818;stroke-width:0.5;" x1="146.5" x2="217.5" y1="74" y2="74"/><line style="stroke:#181818;stroke-width:0.5;" x1="146.5" x2="217.5" y1="82" y2="82"/></g><!--reverse link java.lang.Object to ual.hmis.sesion05.ejercicio2.Ejercicio2--><g id="link_java.lang.Object_ual.hmis.sesion05.ejercicio2.Ejercicio2"><path codeLine="8" d="M182,110.31 C182,128.06 182,148.48 182,165.93 " fill="none" id="java.lang.Object-backto-ual.hmis.sesion05.ejercicio2.Ejercicio2" style="stroke:#181818;stroke-width:1.0;"/><polygon fill="none" points="175,110.04,182,90.04,189,110.04,175,110.04" style="stroke:#181818;stroke-width:1.0;"/></g><text fill="#888888" font-family="sans-serif" font-size="10" lengthAdjust="spacing" textLength="184" x="83.5" y="281.3809">UMLDoclet 2.1.0, PlantUML 1.2022.14</text><!--SRC=[XL2n2i903Dtx5Lc4YlPGmKMSf6wAWZYL3kaHsolNYzoTBkg_srAnv-HRGfBtmdi1033OaBkY9BYX5bMZd73a59lPKb1DLYgfU06FA88Ff4RdO3liicneHEKRdUSj7m9CD9VAn2TlbIcdqDVn2WfcJMX-kPARgxrHWRjEj3MRzB_mDTYhyOv2eod5eQX9UbW_aoIm6mNy8VnN5JZlW_PNGfKauyd2XRahv_qkPQd9mqBCnMmAn_QCRwSmkfFjFXcFtm00]--></g></svg>