<?xml version="1.0" encoding="UTF-8" standalone="no"?><svg xmlns="http://www.w3.org/2000/svg" xmlns:xlink="http://www.w3.org/1999/xlink" contentStyleType="text/css" height="274px" preserveAspectRatio="none" style="width:765px;height:274px;background:#FFFFFF;" version="1.1" viewBox="0 0 765 274" width="765px" zoomAndPan="magnify"><defs/><g><!--cluster ual.hmis.sesion05.ejercicio5--><g id="cluster_ual.hmis.sesion05.ejercicio5"><path d="M8.5,130 L207.5,130 A3.75,3.75 0 0 1 210,132.5 L217,153.6094 L755.5,153.6094 A2.5,2.5 0 0 1 758,156.1094 L758,245.5 A2.5,2.5 0 0 1 755.5,248 L8.5,248 A2.5,2.5 0 0 1 6,245.5 L6,132.5 A2.5,2.5 0 0 1 8.5,130 " fill="none" style="stroke:#000000;stroke-width:1.5;"/><line style="stroke:#000000;stroke-width:1.5;" x1="6" x2="217" y1="153.6094" y2="153.6094"/><text fill="#000000" font-family="sans-serif" font-size="14" font-weight="bold" lengthAdjust="spacing" textLength="198" x="10" y="146.5332">ual.hmis.sesion05.ejercicio5</text></g><!--cluster java.lang--><g id="cluster_java.lang"><path d="M331.5,6 L395.5,6 A3.75,3.75 0 0 1 398,8.5 L405,29.6094 L432.5,29.6094 A2.5,2.5 0 0 1 435,32.1094 L435,103.5 A2.5,2.5 0 0 1 432.5,106 L331.5,106 A2.5,2.5 0 0 1 329,103.5 L329,8.5 A2.5,2.5 0 0 1 331.5,6 " fill="none" style="stroke:#000000;stroke-width:1.5;"/><line style="stroke:#000000;stroke-width:1.5;" x1="329" x2="405" y1="29.6094" y2="29.6094"/><text fill="#000000" font-family="sans-serif" font-size="14" font-weight="bold" lengthAdjust="spacing" textLength="63" x="333" y="22.5332">java.lang</text></g><!--class ual.hmis.sesion05.ejercicio5.Ejercicio5--><a href="Ejercicio5.html" target="_top" title="Ejercicio5.html" xlink:actuate="onRequest" xlink:href="Ejercicio5.html" xlink:show="new" xlink:title="Ejercicio5.html" xlink:type="simple"><g id="elem_ual.hmis.sesion05.ejercicio5.Ejercicio5"><rect codeLine="3" fill="#F1F1F1" height="65.6094" id="ual.hmis.sesion05.ejercicio5.Ejercicio5" rx="2.5" ry="2.5" style="stroke:#181818;stroke-width:0.5;" width="720" x="22" y="166"/><ellipse cx="347.25" cy="182" fill="#ADD1B2" rx="11" ry="11" style="stroke:#181818;stroke-width:1.0;"/><path d="M350.0156,177.875 Q350.1719,177.6563 350.3594,177.5469 Q350.5469,177.4375 350.7656,177.4375 Q351.1406,177.4375 351.375,177.7031 Q351.6094,177.9531 351.6094,178.5625 L351.6094,180.0156 Q351.6094,180.625 351.375,180.8906 Q351.1406,181.1563 350.7656,181.1563 Q350.4219,181.1563 350.2188,180.9531 Q350.0156,180.7656 349.9063,180.25 Q349.8594,179.8906 349.6719,179.7031 Q349.3438,179.3281 348.7344,179.1094 Q348.125,178.8906 347.5,178.8906 Q346.7344,178.8906 346.0938,179.2188 Q345.4688,179.5469 344.9688,180.2969 Q344.4844,181.0469 344.4844,182.0781 L344.4844,183.1719 Q344.4844,184.4063 345.375,185.2344 Q346.2656,186.0469 347.8594,186.0469 Q348.7969,186.0469 349.4531,185.7969 Q349.8438,185.6406 350.2656,185.2031 Q350.5313,184.9375 350.6719,184.8594 Q350.8281,184.7813 351.0313,184.7813 Q351.3594,184.7813 351.6094,185.0469 Q351.875,185.2969 351.875,185.6406 Q351.875,185.9844 351.5313,186.3906 Q351.0313,186.9688 350.2344,187.2969 Q349.1563,187.75 347.8594,187.75 Q346.3438,187.75 345.1406,187.125 Q344.1563,186.625 343.4688,185.5625 Q342.7813,184.4844 342.7813,183.2031 L342.7813,182.0469 Q342.7813,180.7188 343.3906,179.5781 Q344.0156,178.4219 345.1094,177.8125 Q346.2031,177.1875 347.4375,177.1875 Q348.1719,177.1875 348.8125,177.3594 Q349.4688,177.5156 350.0156,177.875 Z " fill="#000000"/><text fill="#000000" font-family="sans-serif" font-size="14" lengthAdjust="spacing" textLength="61" x="367.75" y="187.7285">Ejercicio5</text><line style="stroke:#181818;stroke-width:0.5;" x1="23" x2="741" y1="198" y2="198"/><line style="stroke:#181818;stroke-width:0.5;" x1="23" x2="741" y1="206" y2="206"/><ellipse cx="33" cy="220.3047" fill="#84BE84" rx="3" ry="3" style="stroke:#038048;stroke-width:1.0;"/><text fill="#000000" font-family="sans-serif" font-size="14" lengthAdjust="spacing" text-decoration="underline" textLength="694" x="42" y="224.5332">ordenar(List&lt;T extends Comparable&lt;T&gt;&gt;, List&lt;T extends Comparable&lt;T&gt;&gt;): List&lt;T extends Comparable&lt;T&gt;&gt;</text></g></a><!--class java.lang.Object--><g id="elem_java.lang.Object"><rect codeLine="11" fill="#F1F1F1" height="48" id="java.lang.Object" rx="2.5" ry="2.5" style="stroke:#181818;stroke-width:0.5;" width="73" x="345.5" y="42"/><ellipse cx="360.5" cy="58" fill="#ADD1B2" rx="11" ry="11" style="stroke:#181818;stroke-width:1.0;"/><path d="M363.2656,53.875 Q363.4219,53.6563 363.6094,53.5469 Q363.7969,53.4375 364.0156,53.4375 Q364.3906,53.4375 364.625,53.7031 Q364.8594,53.9531 364.8594,54.5625 L364.8594,56.0156 Q364.8594,56.625 364.625,56.8906 Q364.3906,57.1563 364.0156,57.1563 Q363.6719,57.1563 363.4688,56.9531 Q363.2656,56.7656 363.1563,56.25 Q363.1094,55.8906 362.9219,55.7031 Q362.5938,55.3281 361.9844,55.1094 Q361.375,54.8906 360.75,54.8906 Q359.9844,54.8906 359.3438,55.2188 Q358.7188,55.5469 358.2188,56.2969 Q357.7344,57.0469 357.7344,58.0781 L357.7344,59.1719 Q357.7344,60.4063 358.625,61.2344 Q359.5156,62.0469 361.1094,62.0469 Q362.0469,62.0469 362.7031,61.7969 Q363.0938,61.6406 363.5156,61.2031 Q363.7813,60.9375 363.9219,60.8594 Q364.0781,60.7813 364.2813,60.7813 Q364.6094,60.7813 364.8594,61.0469 Q365.125,61.2969 365.125,61.6406 Q365.125,61.9844 364.7813,62.3906 Q364.2813,62.9688 363.4844,63.2969 Q362.4063,63.75 361.1094,63.75 Q359.5938,63.75 358.3906,63.125 Q357.4063,62.625 356.7188,61.5625 Q356.0313,60.4844 356.0313,59.2031 L356.0313,58.0469 Q356.0313,56.7188 356.6406,55.5781 Q357.2656,54.4219 358.3594,53.8125 Q359.4531,53.1875 360.6875,53.1875 Q361.4219,53.1875 362.0625,53.3594 Q362.7188,53.5156 363.2656,53.875 Z " fill="#000000"/><text fill="#000000" font-family="sans-serif" font-size="14" lengthAdjust="spacing" textLength="41" x="374.5" y="63.7285">Object</text><line style="stroke:#181818;stroke-width:0.5;" x1="346.5" x2="417.5" y1="74" y2="74"/><line style="stroke:#181818;stroke-width:0.5;" x1="346.5" x2="417.5" y1="82" y2="82"/></g><!--reverse link java.lang.Object to ual.hmis.sesion05.ejercicio5.Ejercicio5--><g id="link_java.lang.Object_ual.hmis.sesion05.ejercicio5.Ejercicio5"><path codeLine="7" d="M382,110.16 C382,128.29 382,149.01 382,165.78 " fill="none" id="java.lang.Object-backto-ual.hmis.sesion05.ejercicio5.Ejercicio5" style="stroke:#181818;stroke-width:1.0;"/><polygon fill="none" points="375,110.12,382,90.12,389,110.12,375,110.12" style="stroke:#181818;stroke-width:1.0;"/></g><text fill="#888888" font-family="sans-serif" font-size="10" lengthAdjust="spacing" textLength="184" x="283.5" y="264.3809">UMLDoclet 2.1.0, PlantUML 1.2022.14</text><!--SRC=[VL2nRW8n3DtlAzvI2GH4j19BTM8fR20wm8GOJ30bfro2OXTL0lwzXq1S9hnOzhEV_Hu01AfPZcGPl-JDeNPYXCN5C1mPhZXPPrqSuLmKU8Jr989fYwtNRM4EMllDffb75cTHKcUlwCMquq2fCtEYvHByfnnsWgzO7odHrdEv78_xU0btFr_ZpzFNzkcAJcGyXH-ps5Pi5ULbCCX45DbyQybpAzDpbtzdoRSi1-M4VOotj9hF9j5wLdoOTpFiuxkXqQQBjnEdcx-TxZy0]--></g></svg>