<?xml version="1.0" encoding="UTF-8" standalone="no"?><svg xmlns="http://www.w3.org/2000/svg" xmlns:xlink="http://www.w3.org/1999/xlink" contentStyleType="text/css" height="291px" preserveAspectRatio="none" style="width:293px;height:291px;background:#FFFFFF;" version="1.1" viewBox="0 0 293 291" width="293px" zoomAndPan="magnify"><defs/><g><!--cluster ual.hmis.sesion05.ejercicio4--><g id="cluster_ual.hmis.sesion05.ejercicio4"><path d="M8.5,130 L207.5,130 A3.75,3.75 0 0 1 210,132.5 L217,153.6094 L283.5,153.6094 A2.5,2.5 0 0 1 286,156.1094 L286,262.5 A2.5,2.5 0 0 1 283.5,265 L8.5,265 A2.5,2.5 0 0 1 6,262.5 L6,132.5 A2.5,2.5 0 0 1 8.5,130 " fill="none" style="stroke:#000000;stroke-width:1.5;"/><line style="stroke:#000000;stroke-width:1.5;" x1="6" x2="217" y1="153.6094" y2="153.6094"/><text fill="#000000" font-family="sans-serif" font-size="14" font-weight="bold" lengthAdjust="spacing" textLength="198" x="10" y="146.5332">ual.hmis.sesion05.ejercicio4</text></g><!--cluster java.lang--><g id="cluster_java.lang"><path d="M95.5,6 L159.5,6 A3.75,3.75 0 0 1 162,8.5 L169,29.6094 L196.5,29.6094 A2.5,2.5 0 0 1 199,32.1094 L199,103.5 A2.5,2.5 0 0 1 196.5,106 L95.5,106 A2.5,2.5 0 0 1 93,103.5 L93,8.5 A2.5,2.5 0 0 1 95.5,6 " fill="none" style="stroke:#000000;stroke-width:1.5;"/><line style="stroke:#000000;stroke-width:1.5;" x1="93" x2="169" y1="29.6094" y2="29.6094"/><text fill="#000000" font-family="sans-serif" font-size="14" font-weight="bold" lengthAdjust="spacing" textLength="63" x="97" y="22.5332">java.lang</text></g><!--class ual.hmis.sesion05.ejercicio4.Ejercicio4--><a href="Ejercicio4.html" target="_top" title="Ejercicio4.html" xlink:actuate="onRequest" xlink:href="Ejercicio4.html" xlink:show="new" xlink:title="Ejercicio4.html" xlink:type="simple"><g id="elem_ual.hmis.sesion05.ejercicio4.Ejercicio4"><rect codeLine="3" fill="#F1F1F1" height="83.2188" id="ual.hmis.sesion05.ejercicio4.Ejercicio4" rx="2.5" ry="2.5" style="stroke:#181818;stroke-width:0.5;" width="248" x="22" y="166"/><ellipse cx="111.25" cy="182" fill="#ADD1B2" rx="11" ry="11" style="stroke:#181818;stroke-width:1.0;"/><path d="M114.0156,177.875 Q114.1719,177.6563 114.3594,177.5469 Q114.5469,177.4375 114.7656,177.4375 Q115.1406,177.4375 115.375,177.7031 Q115.6094,177.9531 115.6094,178.5625 L115.6094,180.0156 Q115.6094,180.625 115.375,180.8906 Q115.1406,181.1563 114.7656,181.1563 Q114.4219,181.1563 114.2188,180.9531 Q114.0156,180.7656 113.9063,180.25 Q113.8594,179.8906 113.6719,179.7031 Q113.3438,179.3281 112.7344,179.1094 Q112.125,178.8906 111.5,178.8906 Q110.7344,178.8906 110.0938,179.2188 Q109.4688,179.5469 108.9688,180.2969 Q108.4844,181.0469 108.4844,182.0781 L108.4844,183.1719 Q108.4844,184.4063 109.375,185.2344 Q110.2656,186.0469 111.8594,186.0469 Q112.7969,186.0469 113.4531,185.7969 Q113.8438,185.6406 114.2656,185.2031 Q114.5313,184.9375 114.6719,184.8594 Q114.8281,184.7813 115.0313,184.7813 Q115.3594,184.7813 115.6094,185.0469 Q115.875,185.2969 115.875,185.6406 Q115.875,185.9844 115.5313,186.3906 Q115.0313,186.9688 114.2344,187.2969 Q113.1563,187.75 111.8594,187.75 Q110.3438,187.75 109.1406,187.125 Q108.1563,186.625 107.4688,185.5625 Q106.7813,184.4844 106.7813,183.2031 L106.7813,182.0469 Q106.7813,180.7188 107.3906,179.5781 Q108.0156,178.4219 109.1094,177.8125 Q110.2031,177.1875 111.4375,177.1875 Q112.1719,177.1875 112.8125,177.3594 Q113.4688,177.5156 114.0156,177.875 Z " fill="#000000"/><text fill="#000000" font-family="sans-serif" font-size="14" lengthAdjust="spacing" textLength="61" x="131.75" y="187.7285">Ejercicio4</text><line style="stroke:#181818;stroke-width:0.5;" x1="23" x2="269" y1="198" y2="198"/><line style="stroke:#181818;stroke-width:0.5;" x1="23" x2="269" y1="206" y2="206"/><ellipse cx="33" cy="220.3047" fill="#84BE84" rx="3" ry="3" style="stroke:#038048;stroke-width:1.0;"/><text fill="#000000" font-family="sans-serif" font-size="14" lengthAdjust="spacing" text-decoration="underline" textLength="184" x="42" y="224.5332">obtenerDiagonales(int[]): int[]</text><ellipse cx="33" cy="237.9141" fill="#84BE84" rx="3" ry="3" style="stroke:#038048;stroke-width:1.0;"/><text fill="#000000" font-family="sans-serif" font-size="14" lengthAdjust="spacing" text-decoration="underline" textLength="222" x="42" y="242.1426">sumarColumnas(double[]): double[]</text></g></a><!--class java.lang.Object--><g id="elem_java.lang.Object"><rect codeLine="12" fill="#F1F1F1" height="48" id="java.lang.Object" rx="2.5" ry="2.5" style="stroke:#181818;stroke-width:0.5;" width="73" x="109.5" y="42"/><ellipse cx="124.5" cy="58" fill="#ADD1B2" rx="11" ry="11" style="stroke:#181818;stroke-width:1.0;"/><path d="M127.2656,53.875 Q127.4219,53.6563 127.6094,53.5469 Q127.7969,53.4375 128.0156,53.4375 Q128.3906,53.4375 128.625,53.7031 Q128.8594,53.9531 128.8594,54.5625 L128.8594,56.0156 Q128.8594,56.625 128.625,56.8906 Q128.3906,57.1563 128.0156,57.1563 Q127.6719,57.1563 127.4688,56.9531 Q127.2656,56.7656 127.1563,56.25 Q127.1094,55.8906 126.9219,55.7031 Q126.5938,55.3281 125.9844,55.1094 Q125.375,54.8906 124.75,54.8906 Q123.9844,54.8906 123.3438,55.2188 Q122.7188,55.5469 122.2188,56.2969 Q121.7344,57.0469 121.7344,58.0781 L121.7344,59.1719 Q121.7344,60.4063 122.625,61.2344 Q123.5156,62.0469 125.1094,62.0469 Q126.0469,62.0469 126.7031,61.7969 Q127.0938,61.6406 127.5156,61.2031 Q127.7813,60.9375 127.9219,60.8594 Q128.0781,60.7813 128.2813,60.7813 Q128.6094,60.7813 128.8594,61.0469 Q129.125,61.2969 129.125,61.6406 Q129.125,61.9844 128.7813,62.3906 Q128.2813,62.9688 127.4844,63.2969 Q126.4063,63.75 125.1094,63.75 Q123.5938,63.75 122.3906,63.125 Q121.4063,62.625 120.7188,61.5625 Q120.0313,60.4844 120.0313,59.2031 L120.0313,58.0469 Q120.0313,56.7188 120.6406,55.5781 Q121.2656,54.4219 122.3594,53.8125 Q123.4531,53.1875 124.6875,53.1875 Q125.4219,53.1875 126.0625,53.3594 Q126.7188,53.5156 127.2656,53.875 Z " fill="#000000"/><text fill="#000000" font-family="sans-serif" font-size="14" lengthAdjust="spacing" textLength="41" x="138.5" y="63.7285">Object</text><line style="stroke:#181818;stroke-width:0.5;" x1="110.5" x2="181.5" y1="74" y2="74"/><line style="stroke:#181818;stroke-width:0.5;" x1="110.5" x2="181.5" y1="82" y2="82"/></g><!--reverse link java.lang.Object to ual.hmis.sesion05.ejercicio4.Ejercicio4--><g id="link_java.lang.Object_ual.hmis.sesion05.ejercicio4.Ejercicio4"><path codeLine="8" d="M146,110.31 C146,128.06 146,148.48 146,165.93 " fill="none" id="java.lang.Object-backto-ual.hmis.sesion05.ejercicio4.Ejercicio4" style="stroke:#181818;stroke-width:1.0;"/><polygon fill="none" points="139,110.04,146,90.04,153,110.04,139,110.04" style="stroke:#181818;stroke-width:1.0;"/></g><text fill="#888888" font-family="sans-serif" font-size="10" lengthAdjust="spacing" textLength="184" x="47.5" y="281.3809">UMLDoclet 2.1.0, PlantUML 1.2022.14</text><!--SRC=[TP0zRy9038Rt_0elbO9QJhI21NKhtK1qwHHbS0uNBhexexF3Gldl3Hybj-35dyyhsm004GF97Yr1XzxiWXCZ98xZP6QefMITTJo5Or70pQn74VWSUbKr96QdmTTrFm-P7KLHdJt1CpTAaTB2uPOZUfBIHQtgqHmk_W4bNS3qmRuB4QNSSDTuka3_uPqx3NksU43ZCMxDkcd9Ahp_ZiVPtaKsFtpXJcKdN2- -gkIKfQYKu8VvxBvNomLRJmflvjLCNk2hbz6-2ay7IkUNbgC_]--></g></svg>