<?xml version="1.0" encoding="UTF-8" standalone="no"?><svg xmlns="http://www.w3.org/2000/svg" xmlns:xlink="http://www.w3.org/1999/xlink" contentStyleType="text/css" height="274px" preserveAspectRatio="none" style="width:195px;height:274px;background:#FFFFFF;" version="1.1" viewBox="0 0 195 274" width="195px" zoomAndPan="magnify"><defs/><g><!--cluster ual.hmis.sesion05--><g id="cluster_ual.hmis.sesion05"><path d="M11,130 L137,130 A3.75,3.75 0 0 1 139.5,132.5 L146.5,153.6094 L186,153.6094 A2.5,2.5 0 0 1 188.5,156.1094 L188.5,245.5 A2.5,2.5 0 0 1 186,248 L11,248 A2.5,2.5 0 0 1 8.5,245.5 L8.5,132.5 A2.5,2.5 0 0 1 11,130 " fill="none" style="stroke:#000000;stroke-width:1.5;"/><line style="stroke:#000000;stroke-width:1.5;" x1="8.5" x2="146.5" y1="153.6094" y2="153.6094"/><text fill="#000000" font-family="sans-serif" font-size="14" font-weight="bold" lengthAdjust="spacing" textLength="125" x="12.5" y="146.5332">ual.hmis.sesion05</text></g><!--cluster java.lang--><g id="cluster_java.lang"><path d="M48,6 L112,6 A3.75,3.75 0 0 1 114.5,8.5 L121.5,29.6094 L149,29.6094 A2.5,2.5 0 0 1 151.5,32.1094 L151.5,103.5 A2.5,2.5 0 0 1 149,106 L48,106 A2.5,2.5 0 0 1 45.5,103.5 L45.5,8.5 A2.5,2.5 0 0 1 48,6 " fill="none" style="stroke:#000000;stroke-width:1.5;"/><line style="stroke:#000000;stroke-width:1.5;" x1="45.5" x2="121.5" y1="29.6094" y2="29.6094"/><text fill="#000000" font-family="sans-serif" font-size="14" font-weight="bold" lengthAdjust="spacing" textLength="63" x="49.5" y="22.5332">java.lang</text></g><!--class ual.hmis.sesion05.Ejercicio1--><a href="Ejercicio1.html" target="_top" title="Ejercicio1.html" xlink:actuate="onRequest" xlink:href="Ejercicio1.html" xlink:show="new" xlink:title="Ejercicio1.html" xlink:type="simple"><g id="elem_ual.hmis.sesion05.Ejercicio1"><rect codeLine="3" fill="#F1F1F1" height="65.6094" id="ual.hmis.sesion05.Ejercicio1" rx="2.5" ry="2.5" style="stroke:#181818;stroke-width:0.5;" width="147" x="25" y="166"/><ellipse cx="64.3" cy="182" fill="#ADD1B2" rx="11" ry="11" style="stroke:#181818;stroke-width:1.0;"/><path d="M67.0656,177.875 Q67.2219,177.6563 67.4094,177.5469 Q67.5969,177.4375 67.8156,177.4375 Q68.1906,177.4375 68.425,177.7031 Q68.6594,177.9531 68.6594,178.5625 L68.6594,180.0156 Q68.6594,180.625 68.425,180.8906 Q68.1906,181.1563 67.8156,181.1563 Q67.4719,181.1563 67.2688,180.9531 Q67.0656,180.7656 66.9563,180.25 Q66.9094,179.8906 66.7219,179.7031 Q66.3938,179.3281 65.7844,179.1094 Q65.175,178.8906 64.55,178.8906 Q63.7844,178.8906 63.1438,179.2188 Q62.5188,179.5469 62.0188,180.2969 Q61.5344,181.0469 61.5344,182.0781 L61.5344,183.1719 Q61.5344,184.4063 62.425,185.2344 Q63.3156,186.0469 64.9094,186.0469 Q65.8469,186.0469 66.5031,185.7969 Q66.8938,185.6406 67.3156,185.2031 Q67.5813,184.9375 67.7219,184.8594 Q67.8781,184.7813 68.0813,184.7813 Q68.4094,184.7813 68.6594,185.0469 Q68.925,185.2969 68.925,185.6406 Q68.925,185.9844 68.5813,186.3906 Q68.0813,186.9688 67.2844,187.2969 Q66.2063,187.75 64.9094,187.75 Q63.3938,187.75 62.1906,187.125 Q61.2063,186.625 60.5188,185.5625 Q59.8313,184.4844 59.8313,183.2031 L59.8313,182.0469 Q59.8313,180.7188 60.4406,179.5781 Q61.0656,178.4219 62.1594,177.8125 Q63.2531,177.1875 64.4875,177.1875 Q65.2219,177.1875 65.8625,177.3594 Q66.5188,177.5156 67.0656,177.875 Z " fill="#000000"/><text fill="#000000" font-family="sans-serif" font-size="14" lengthAdjust="spacing" textLength="61" x="83.7" y="187.7285">Ejercicio1</text><line style="stroke:#181818;stroke-width:0.5;" x1="26" x2="171" y1="198" y2="198"/><line style="stroke:#181818;stroke-width:0.5;" x1="26" x2="171" y1="206" y2="206"/><ellipse cx="36" cy="220.3047" fill="#84BE84" rx="3" ry="3" style="stroke:#038048;stroke-width:1.0;"/><text fill="#000000" font-family="sans-serif" font-size="14" lengthAdjust="spacing" textLength="121" x="45" y="224.5332">transformar(int): int</text></g></a><!--class java.lang.Object--><g id="elem_java.lang.Object"><rect codeLine="11" fill="#F1F1F1" height="48" id="java.lang.Object" rx="2.5" ry="2.5" style="stroke:#181818;stroke-width:0.5;" width="73" x="62" y="42"/><ellipse cx="77" cy="58" fill="#ADD1B2" rx="11" ry="11" style="stroke:#181818;stroke-width:1.0;"/><path d="M79.7656,53.875 Q79.9219,53.6563 80.1094,53.5469 Q80.2969,53.4375 80.5156,53.4375 Q80.8906,53.4375 81.125,53.7031 Q81.3594,53.9531 81.3594,54.5625 L81.3594,56.0156 Q81.3594,56.625 81.125,56.8906 Q80.8906,57.1563 80.5156,57.1563 Q80.1719,57.1563 79.9688,56.9531 Q79.7656,56.7656 79.6563,56.25 Q79.6094,55.8906 79.4219,55.7031 Q79.0938,55.3281 78.4844,55.1094 Q77.875,54.8906 77.25,54.8906 Q76.4844,54.8906 75.8438,55.2188 Q75.2188,55.5469 74.7188,56.2969 Q74.2344,57.0469 74.2344,58.0781 L74.2344,59.1719 Q74.2344,60.4063 75.125,61.2344 Q76.0156,62.0469 77.6094,62.0469 Q78.5469,62.0469 79.2031,61.7969 Q79.5938,61.6406 80.0156,61.2031 Q80.2813,60.9375 80.4219,60.8594 Q80.5781,60.7813 80.7813,60.7813 Q81.1094,60.7813 81.3594,61.0469 Q81.625,61.2969 81.625,61.6406 Q81.625,61.9844 81.2813,62.3906 Q80.7813,62.9688 79.9844,63.2969 Q78.9063,63.75 77.6094,63.75 Q76.0938,63.75 74.8906,63.125 Q73.9063,62.625 73.2188,61.5625 Q72.5313,60.4844 72.5313,59.2031 L72.5313,58.0469 Q72.5313,56.7188 73.1406,55.5781 Q73.7656,54.4219 74.8594,53.8125 Q75.9531,53.1875 77.1875,53.1875 Q77.9219,53.1875 78.5625,53.3594 Q79.2188,53.5156 79.7656,53.875 Z " fill="#000000"/><text fill="#000000" font-family="sans-serif" font-size="14" lengthAdjust="spacing" textLength="41" x="91" y="63.7285">Object</text><line style="stroke:#181818;stroke-width:0.5;" x1="63" x2="134" y1="74" y2="74"/><line style="stroke:#181818;stroke-width:0.5;" x1="63" x2="134" y1="82" y2="82"/></g><!--reverse link java.lang.Object to ual.hmis.sesion05.Ejercicio1--><g id="link_java.lang.Object_ual.hmis.sesion05.Ejercicio1"><path codeLine="7" d="M98.5,110.16 C98.5,128.29 98.5,149.01 98.5,165.78 " fill="none" id="java.lang.Object-backto-ual.hmis.sesion05.Ejercicio1" style="stroke:#181818;stroke-width:1.0;"/><polygon fill="none" points="91.5,110.12,98.5,90.12,105.5,110.12,91.5,110.12" style="stroke:#181818;stroke-width:1.0;"/></g><text fill="#888888" font-family="sans-serif" font-size="10" lengthAdjust="spacing" textLength="184" x="0" y="264.3809">UMLDoclet 2.1.0, PlantUML 1.2022.14</text><!--SRC=[JK-z2i8m4Dxx5DyYMDJG2YxYg9kYYrFfS8QhfgI99B6B-kwsLDhSSCSTtzy1WA66_PCauqLQF1hbXMUlhCasU2S9_YKrUOz3pKuggMoEefWMyGYDBiiEZwWMmP7nbNKDkRao8TsYwoFaEudNr9BGPExYVAjP1km-grLabaJuAU_8Ydo7c8DAp99i0ZjKrlRZUZhkhTGSi1Qvo9QuT3AXksBMikkVdwS_]--></g></svg>