<?xml version="1.0" encoding="UTF-8" standalone="no"?><svg xmlns="http://www.w3.org/2000/svg" xmlns:xlink="http://www.w3.org/1999/xlink" contentStyleType="text/css" height="489px" preserveAspectRatio="none" style="width:219px;height:489px;background:#FFFFFF;" version="1.1" viewBox="0 0 219 489" width="219px" zoomAndPan="magnify"><defs/><g><!--class ual.hmis.sesion05.coches.Coche--><a href="Coche.html" target="_top" title="Coche.html" xlink:actuate="onRequest" xlink:href="Coche.html" xlink:show="new" xlink:title="Coche.html" xlink:type="simple"><g id="elem_ual.hmis.sesion05.coches.Coche"><rect codeLine="5" fill="#F1F1F1" height="355.5469" id="ual.hmis.sesion05.coches.Coche" rx="2.5" ry="2.5" style="stroke:#181818;stroke-width:0.5;" width="205" x="7" y="107"/><ellipse cx="45.4" cy="127.0938" fill="#ADD1B2" rx="11" ry="11" style="stroke:#181818;stroke-width:1.0;"/><path d="M48.1656,122.9688 Q48.3219,122.75 48.5094,122.6406 Q48.6969,122.5313 48.9156,122.5313 Q49.2906,122.5313 49.525,122.7969 Q49.7594,123.0469 49.7594,123.6563 L49.7594,125.1094 Q49.7594,125.7188 49.525,125.9844 Q49.2906,126.25 48.9156,126.25 Q48.5719,126.25 48.3688,126.0469 Q48.1656,125.8594 48.0563,125.3438 Q48.0094,124.9844 47.8219,124.7969 Q47.4938,124.4219 46.8844,124.2031 Q46.275,123.9844 45.65,123.9844 Q44.8844,123.9844 44.2438,124.3125 Q43.6188,124.6406 43.1188,125.3906 Q42.6344,126.1406 42.6344,127.1719 L42.6344,128.2656 Q42.6344,129.5 43.525,130.3281 Q44.4156,131.1406 46.0094,131.1406 Q46.9469,131.1406 47.6031,130.8906 Q47.9938,130.7344 48.4156,130.2969 Q48.6813,130.0313 48.8219,129.9531 Q48.9781,129.875 49.1813,129.875 Q49.5094,129.875 49.7594,130.1406 Q50.025,130.3906 50.025,130.7344 Q50.025,131.0781 49.6813,131.4844 Q49.1813,132.0625 48.3844,132.3906 Q47.3063,132.8438 46.0094,132.8438 Q44.4938,132.8438 43.2906,132.2188 Q42.3063,131.7188 41.6188,130.6563 Q40.9313,129.5781 40.9313,128.2969 L40.9313,127.1406 Q40.9313,125.8125 41.5406,124.6719 Q42.1656,123.5156 43.2594,122.9063 Q44.3531,122.2813 45.5875,122.2813 Q46.3219,122.2813 46.9625,122.4531 Q47.6188,122.6094 48.1656,122.9688 Z " fill="#000000"/><text fill="#000000" font-family="sans-serif" font-size="14" lengthAdjust="spacing" textLength="41" x="104.6" y="126.5332">Coche</text><text fill="#000000" font-family="sans-serif" font-size="10" lengthAdjust="spacing" textLength="121" x="64.6" y="139.9902">ual.hmis.sesion05.coches</text><line style="stroke:#181818;stroke-width:0.5;" x1="8" x2="211" y1="147.1875" y2="147.1875"/><rect fill="none" height="6" style="stroke:#C82930;stroke-width:1.0;" width="6" x="15" y="158.4922"/><text fill="#000000" font-family="sans-serif" font-size="14" lengthAdjust="spacing" textLength="84" x="27" y="165.7207">marca: String</text><rect fill="none" height="6" style="stroke:#C82930;stroke-width:1.0;" width="6" x="15" y="176.1016"/><text fill="#000000" font-family="sans-serif" font-size="14" lengthAdjust="spacing" textLength="91" x="27" y="183.3301">modelo: String</text><rect fill="none" height="6" style="stroke:#C82930;stroke-width:1.0;" width="6" x="15" y="193.7109"/><text fill="#000000" font-family="sans-serif" font-size="14" lengthAdjust="spacing" textLength="47" x="27" y="200.9395">año: int</text><rect fill="none" height="6" style="stroke:#C82930;stroke-width:1.0;" width="6" x="15" y="211.3203"/><text fill="#000000" font-family="sans-serif" font-size="14" lengthAdjust="spacing" textLength="62" x="27" y="218.5488">precio: int</text><line style="stroke:#181818;stroke-width:0.5;" x1="8" x2="211" y1="225.625" y2="225.625"/><ellipse cx="18" cy="239.9297" fill="#84BE84" rx="3" ry="3" style="stroke:#038048;stroke-width:1.0;"/><text fill="#000000" font-family="sans-serif" font-size="14" lengthAdjust="spacing" textLength="51" x="27" y="244.1582">Coche()</text><ellipse cx="18" cy="257.5391" fill="#84BE84" rx="3" ry="3" style="stroke:#038048;stroke-width:1.0;"/><text fill="#000000" font-family="sans-serif" font-size="14" lengthAdjust="spacing" textLength="179" x="27" y="261.7676">Coche(String, String, int, int)</text><ellipse cx="18" cy="275.1484" fill="#84BE84" rx="3" ry="3" style="stroke:#038048;stroke-width:1.0;"/><text fill="#000000" font-family="sans-serif" font-size="14" lengthAdjust="spacing" textLength="114" x="27" y="279.377">getMarca(): String</text><ellipse cx="18" cy="292.7578" fill="#84BE84" rx="3" ry="3" style="stroke:#038048;stroke-width:1.0;"/><text fill="#000000" font-family="sans-serif" font-size="14" lengthAdjust="spacing" textLength="139" x="27" y="296.9863">setMarca(String): void</text><ellipse cx="18" cy="310.3672" fill="#84BE84" rx="3" ry="3" style="stroke:#038048;stroke-width:1.0;"/><text fill="#000000" font-family="sans-serif" font-size="14" lengthAdjust="spacing" textLength="121" x="27" y="314.5957">getModelo(): String</text><ellipse cx="18" cy="327.9766" fill="#84BE84" rx="3" ry="3" style="stroke:#038048;stroke-width:1.0;"/><text fill="#000000" font-family="sans-serif" font-size="14" lengthAdjust="spacing" textLength="146" x="27" y="332.2051">setModelo(String): void</text><ellipse cx="18" cy="345.5859" fill="#84BE84" rx="3" ry="3" style="stroke:#038048;stroke-width:1.0;"/><text fill="#000000" font-family="sans-serif" font-size="14" lengthAdjust="spacing" textLength="78" x="27" y="349.8145">getAño(): int</text><ellipse cx="18" cy="363.1953" fill="#84BE84" rx="3" ry="3" style="stroke:#038048;stroke-width:1.0;"/><text fill="#000000" font-family="sans-serif" font-size="14" lengthAdjust="spacing" textLength="103" x="27" y="367.4238">setAño(int): void</text><ellipse cx="18" cy="380.8047" fill="#84BE84" rx="3" ry="3" style="stroke:#038048;stroke-width:1.0;"/><text fill="#000000" font-family="sans-serif" font-size="14" lengthAdjust="spacing" textLength="93" x="27" y="385.0332">getPrecio(): int</text><ellipse cx="18" cy="398.4141" fill="#84BE84" rx="3" ry="3" style="stroke:#038048;stroke-width:1.0;"/><text fill="#000000" font-family="sans-serif" font-size="14" lengthAdjust="spacing" textLength="118" x="27" y="402.6426">setPrecio(int): void</text><ellipse cx="18" cy="416.0234" fill="#84BE84" rx="3" ry="3" style="stroke:#038048;stroke-width:1.0;"/><text fill="#000000" font-family="sans-serif" font-size="14" lengthAdjust="spacing" textLength="152" x="27" y="420.252">equals(Object): boolean</text><ellipse cx="18" cy="433.6328" fill="#84BE84" rx="3" ry="3" style="stroke:#038048;stroke-width:1.0;"/><text fill="#000000" font-family="sans-serif" font-size="14" lengthAdjust="spacing" textLength="98" x="27" y="437.8613">hashCode(): int</text><ellipse cx="18" cy="451.2422" fill="#84BE84" rx="3" ry="3" style="stroke:#038048;stroke-width:1.0;"/><text fill="#000000" font-family="sans-serif" font-size="14" lengthAdjust="spacing" textLength="104" x="27" y="455.4707">toString(): String</text></g></a><!--class java.lang.Object--><g id="elem_java.lang.Object"><rect codeLine="25" fill="#F1F1F1" height="40.1875" id="java.lang.Object" rx="2.5" ry="2.5" style="stroke:#181818;stroke-width:0.5;" width="76" x="71.5" y="7"/><ellipse cx="86.5" cy="27.0938" fill="#ADD1B2" rx="11" ry="11" style="stroke:#181818;stroke-width:1.0;"/><path d="M89.2656,22.9688 Q89.4219,22.75 89.6094,22.6406 Q89.7969,22.5313 90.0156,22.5313 Q90.3906,22.5313 90.625,22.7969 Q90.8594,23.0469 90.8594,23.6563 L90.8594,25.1094 Q90.8594,25.7188 90.625,25.9844 Q90.3906,26.25 90.0156,26.25 Q89.6719,26.25 89.4688,26.0469 Q89.2656,25.8594 89.1563,25.3438 Q89.1094,24.9844 88.9219,24.7969 Q88.5938,24.4219 87.9844,24.2031 Q87.375,23.9844 86.75,23.9844 Q85.9844,23.9844 85.3438,24.3125 Q84.7188,24.6406 84.2188,25.3906 Q83.7344,26.1406 83.7344,27.1719 L83.7344,28.2656 Q83.7344,29.5 84.625,30.3281 Q85.5156,31.1406 87.1094,31.1406 Q88.0469,31.1406 88.7031,30.8906 Q89.0938,30.7344 89.5156,30.2969 Q89.7813,30.0313 89.9219,29.9531 Q90.0781,29.875 90.2813,29.875 Q90.6094,29.875 90.8594,30.1406 Q91.125,30.3906 91.125,30.7344 Q91.125,31.0781 90.7813,31.4844 Q90.2813,32.0625 89.4844,32.3906 Q88.4063,32.8438 87.1094,32.8438 Q85.5938,32.8438 84.3906,32.2188 Q83.4063,31.7188 82.7188,30.6563 Q82.0313,29.5781 82.0313,28.2969 L82.0313,27.1406 Q82.0313,25.8125 82.6406,24.6719 Q83.2656,23.5156 84.3594,22.9063 Q85.4531,22.2813 86.6875,22.2813 Q87.4219,22.2813 88.0625,22.4531 Q88.7188,22.6094 89.2656,22.9688 Z " fill="#000000"/><text fill="#000000" font-family="sans-serif" font-size="14" lengthAdjust="spacing" textLength="41" x="102" y="26.5332">Object</text><text fill="#000000" font-family="sans-serif" font-size="10" lengthAdjust="spacing" textLength="44" x="100.5" y="39.9902">java.lang</text></g><!--reverse link java.lang.Object to ual.hmis.sesion05.coches.Coche--><g id="link_java.lang.Object_ual.hmis.sesion05.coches.Coche"><path codeLine="27" d="M109.5,67.41 C109.5,78.93 109.5,92.34 109.5,106.73 " fill="none" id="java.lang.Object-backto-ual.hmis.sesion05.coches.Coche" style="stroke:#181818;stroke-width:1.0;"/><polygon fill="none" points="102.5,67.24,109.5,47.24,116.5,67.24,102.5,67.24" style="stroke:#181818;stroke-width:1.0;"/></g><text fill="#888888" font-family="sans-serif" font-size="10" lengthAdjust="spacing" textLength="184" x="10.5" y="478.9277">UMLDoclet 2.1.0, PlantUML 1.2022.14</text><!--SRC=[XPFTQi8m5CVlznG7OL1HWuxjHaGOxd8oGNRbl3YcHnD9awx9X7qzr9vXBxOahPlModhHaD___Cy7FGK0iEH0OqOsHqvpoh50PmhGHjE5bq78b82otBt2Mf9ARPrcv8JnE7Akq5feZQnye-7WUZmnND2JhkxzyGig9Z9fcIKhZUxVC1uYR0lGmZcHnIomMCIJ2PUfvHBUOy7mz38iE0vXxWgfDmVOfAJCASVlBq-bTdyeBuZB6kp4Sacx3ifqNTYVtXDV1u4RSjFGKz8-gTwnUwqKVCJEoFJO6ni_Pox5y-vRFrxm7irYAnxwRF3CulnDhaffyj6p_s8sULXjYGTrPOmYr7y10gsO-7PFyZfJjbyRyRDvYSe21rkqnHqoXNeJr-Rtnih0CacTmkYZr_jdnQhof1qLi3Oc78_J-pl3bVzBhjY0zRimyqcTft2veo8aITe_]--></g></svg>