<?xml version="1.0" encoding="UTF-8" standalone="no"?><svg xmlns="http://www.w3.org/2000/svg" xmlns:xlink="http://www.w3.org/1999/xlink" contentStyleType="text/css" height="557px" preserveAspectRatio="none" style="width:523px;height:557px;background:#FFFFFF;" version="1.1" viewBox="0 0 523 557" width="523px" zoomAndPan="magnify"><defs/><g><!--cluster ual.hmis.sesion05.coches--><g id="cluster_ual.hmis.sesion05.coches"><path d="M8.5,6 L189.5,6 A3.75,3.75 0 0 1 192,8.5 L199,29.6094 L513.5,29.6094 A2.5,2.5 0 0 1 516,32.1094 L516,528.5 A2.5,2.5 0 0 1 513.5,531 L8.5,531 A2.5,2.5 0 0 1 6,528.5 L6,8.5 A2.5,2.5 0 0 1 8.5,6 " fill="none" style="stroke:#000000;stroke-width:1.5;"/><line style="stroke:#000000;stroke-width:1.5;" x1="6" x2="199" y1="29.6094" y2="29.6094"/><text fill="#000000" font-family="sans-serif" font-size="14" font-weight="bold" lengthAdjust="spacing" textLength="180" x="10" y="22.5332">ual.hmis.sesion05.coches</text></g><!--class ual.hmis.sesion05.coches.Coche--><a href="Coche.html" target="_top" title="Coche.html" xlink:actuate="onRequest" xlink:href="Coche.html" xlink:show="new" xlink:title="Coche.html" xlink:type="simple"><g id="elem_ual.hmis.sesion05.coches.Coche"><rect codeLine="3" fill="#F1F1F1" height="347.3594" id="ual.hmis.sesion05.coches.Coche" rx="2.5" ry="2.5" style="stroke:#181818;stroke-width:0.5;" width="205" x="22.5" y="42"/><ellipse cx="100.25" cy="58" fill="#ADD1B2" rx="11" ry="11" style="stroke:#181818;stroke-width:1.0;"/><path d="M103.0156,53.875 Q103.1719,53.6563 103.3594,53.5469 Q103.5469,53.4375 103.7656,53.4375 Q104.1406,53.4375 104.375,53.7031 Q104.6094,53.9531 104.6094,54.5625 L104.6094,56.0156 Q104.6094,56.625 104.375,56.8906 Q104.1406,57.1563 103.7656,57.1563 Q103.4219,57.1563 103.2188,56.9531 Q103.0156,56.7656 102.9063,56.25 Q102.8594,55.8906 102.6719,55.7031 Q102.3438,55.3281 101.7344,55.1094 Q101.125,54.8906 100.5,54.8906 Q99.7344,54.8906 99.0938,55.2188 Q98.4688,55.5469 97.9688,56.2969 Q97.4844,57.0469 97.4844,58.0781 L97.4844,59.1719 Q97.4844,60.4063 98.375,61.2344 Q99.2656,62.0469 100.8594,62.0469 Q101.7969,62.0469 102.4531,61.7969 Q102.8438,61.6406 103.2656,61.2031 Q103.5313,60.9375 103.6719,60.8594 Q103.8281,60.7813 104.0313,60.7813 Q104.3594,60.7813 104.6094,61.0469 Q104.875,61.2969 104.875,61.6406 Q104.875,61.9844 104.5313,62.3906 Q104.0313,62.9688 103.2344,63.2969 Q102.1563,63.75 100.8594,63.75 Q99.3438,63.75 98.1406,63.125 Q97.1563,62.625 96.4688,61.5625 Q95.7813,60.4844 95.7813,59.2031 L95.7813,58.0469 Q95.7813,56.7188 96.3906,55.5781 Q97.0156,54.4219 98.1094,53.8125 Q99.2031,53.1875 100.4375,53.1875 Q101.1719,53.1875 101.8125,53.3594 Q102.4688,53.5156 103.0156,53.875 Z " fill="#000000"/><text fill="#000000" font-family="sans-serif" font-size="14" lengthAdjust="spacing" textLength="41" x="120.75" y="63.7285">Coche</text><line style="stroke:#181818;stroke-width:0.5;" x1="23.5" x2="226.5" y1="74" y2="74"/><rect fill="none" height="6" style="stroke:#C82930;stroke-width:1.0;" width="6" x="30.5" y="85.3047"/><text fill="#000000" font-family="sans-serif" font-size="14" lengthAdjust="spacing" textLength="84" x="42.5" y="92.5332">marca: String</text><rect fill="none" height="6" style="stroke:#C82930;stroke-width:1.0;" width="6" x="30.5" y="102.9141"/><text fill="#000000" font-family="sans-serif" font-size="14" lengthAdjust="spacing" textLength="91" x="42.5" y="110.1426">modelo: String</text><rect fill="none" height="6" style="stroke:#C82930;stroke-width:1.0;" width="6" x="30.5" y="120.5234"/><text fill="#000000" font-family="sans-serif" font-size="14" lengthAdjust="spacing" textLength="47" x="42.5" y="127.752">año: int</text><rect fill="none" height="6" style="stroke:#C82930;stroke-width:1.0;" width="6" x="30.5" y="138.1328"/><text fill="#000000" font-family="sans-serif" font-size="14" lengthAdjust="spacing" textLength="62" x="42.5" y="145.3613">precio: int</text><line style="stroke:#181818;stroke-width:0.5;" x1="23.5" x2="226.5" y1="152.4375" y2="152.4375"/><ellipse cx="33.5" cy="166.7422" fill="#84BE84" rx="3" ry="3" style="stroke:#038048;stroke-width:1.0;"/><text fill="#000000" font-family="sans-serif" font-size="14" lengthAdjust="spacing" textLength="51" x="42.5" y="170.9707">Coche()</text><ellipse cx="33.5" cy="184.3516" fill="#84BE84" rx="3" ry="3" style="stroke:#038048;stroke-width:1.0;"/><text fill="#000000" font-family="sans-serif" font-size="14" lengthAdjust="spacing" textLength="179" x="42.5" y="188.5801">Coche(String, String, int, int)</text><ellipse cx="33.5" cy="201.9609" fill="#84BE84" rx="3" ry="3" style="stroke:#038048;stroke-width:1.0;"/><text fill="#000000" font-family="sans-serif" font-size="14" lengthAdjust="spacing" textLength="114" x="42.5" y="206.1895">getMarca(): String</text><ellipse cx="33.5" cy="219.5703" fill="#84BE84" rx="3" ry="3" style="stroke:#038048;stroke-width:1.0;"/><text fill="#000000" font-family="sans-serif" font-size="14" lengthAdjust="spacing" textLength="139" x="42.5" y="223.7988">setMarca(String): void</text><ellipse cx="33.5" cy="237.1797" fill="#84BE84" rx="3" ry="3" style="stroke:#038048;stroke-width:1.0;"/><text fill="#000000" font-family="sans-serif" font-size="14" lengthAdjust="spacing" textLength="121" x="42.5" y="241.4082">getModelo(): String</text><ellipse cx="33.5" cy="254.7891" fill="#84BE84" rx="3" ry="3" style="stroke:#038048;stroke-width:1.0;"/><text fill="#000000" font-family="sans-serif" font-size="14" lengthAdjust="spacing" textLength="146" x="42.5" y="259.0176">setModelo(String): void</text><ellipse cx="33.5" cy="272.3984" fill="#84BE84" rx="3" ry="3" style="stroke:#038048;stroke-width:1.0;"/><text fill="#000000" font-family="sans-serif" font-size="14" lengthAdjust="spacing" textLength="78" x="42.5" y="276.627">getAño(): int</text><ellipse cx="33.5" cy="290.0078" fill="#84BE84" rx="3" ry="3" style="stroke:#038048;stroke-width:1.0;"/><text fill="#000000" font-family="sans-serif" font-size="14" lengthAdjust="spacing" textLength="103" x="42.5" y="294.2363">setAño(int): void</text><ellipse cx="33.5" cy="307.6172" fill="#84BE84" rx="3" ry="3" style="stroke:#038048;stroke-width:1.0;"/><text fill="#000000" font-family="sans-serif" font-size="14" lengthAdjust="spacing" textLength="93" x="42.5" y="311.8457">getPrecio(): int</text><ellipse cx="33.5" cy="325.2266" fill="#84BE84" rx="3" ry="3" style="stroke:#038048;stroke-width:1.0;"/><text fill="#000000" font-family="sans-serif" font-size="14" lengthAdjust="spacing" textLength="118" x="42.5" y="329.4551">setPrecio(int): void</text><ellipse cx="33.5" cy="342.8359" fill="#84BE84" rx="3" ry="3" style="stroke:#038048;stroke-width:1.0;"/><text fill="#000000" font-family="sans-serif" font-size="14" lengthAdjust="spacing" textLength="152" x="42.5" y="347.0645">equals(Object): boolean</text><ellipse cx="33.5" cy="360.4453" fill="#84BE84" rx="3" ry="3" style="stroke:#038048;stroke-width:1.0;"/><text fill="#000000" font-family="sans-serif" font-size="14" lengthAdjust="spacing" textLength="98" x="42.5" y="364.6738">hashCode(): int</text><ellipse cx="33.5" cy="378.0547" fill="#84BE84" rx="3" ry="3" style="stroke:#038048;stroke-width:1.0;"/><text fill="#000000" font-family="sans-serif" font-size="14" lengthAdjust="spacing" textLength="104" x="42.5" y="382.2832">toString(): String</text></g></a><!--class ual.hmis.sesion05.coches.JsonReader--><a href="JsonReader.html" target="_top" title="JsonReader.html" xlink:actuate="onRequest" xlink:href="JsonReader.html" xlink:show="new" xlink:title="JsonReader.html" xlink:type="simple"><g id="elem_ual.hmis.sesion05.coches.JsonReader"><rect codeLine="23" fill="#F1F1F1" height="65.6094" id="ual.hmis.sesion05.coches.JsonReader" rx="2.5" ry="2.5" style="stroke:#181818;stroke-width:0.5;" width="237" x="262.5" y="182.5"/><ellipse cx="338.75" cy="198.5" fill="#ADD1B2" rx="11" ry="11" style="stroke:#181818;stroke-width:1.0;"/><path d="M341.5156,194.375 Q341.6719,194.1563 341.8594,194.0469 Q342.0469,193.9375 342.2656,193.9375 Q342.6406,193.9375 342.875,194.2031 Q343.1094,194.4531 343.1094,195.0625 L343.1094,196.5156 Q343.1094,197.125 342.875,197.3906 Q342.6406,197.6563 342.2656,197.6563 Q341.9219,197.6563 341.7188,197.4531 Q341.5156,197.2656 341.4063,196.75 Q341.3594,196.3906 341.1719,196.2031 Q340.8438,195.8281 340.2344,195.6094 Q339.625,195.3906 339,195.3906 Q338.2344,195.3906 337.5938,195.7188 Q336.9688,196.0469 336.4688,196.7969 Q335.9844,197.5469 335.9844,198.5781 L335.9844,199.6719 Q335.9844,200.9063 336.875,201.7344 Q337.7656,202.5469 339.3594,202.5469 Q340.2969,202.5469 340.9531,202.2969 Q341.3438,202.1406 341.7656,201.7031 Q342.0313,201.4375 342.1719,201.3594 Q342.3281,201.2813 342.5313,201.2813 Q342.8594,201.2813 343.1094,201.5469 Q343.375,201.7969 343.375,202.1406 Q343.375,202.4844 343.0313,202.8906 Q342.5313,203.4688 341.7344,203.7969 Q340.6563,204.25 339.3594,204.25 Q337.8438,204.25 336.6406,203.625 Q335.6563,203.125 334.9688,202.0625 Q334.2813,200.9844 334.2813,199.7031 L334.2813,198.5469 Q334.2813,197.2188 334.8906,196.0781 Q335.5156,194.9219 336.6094,194.3125 Q337.7031,193.6875 338.9375,193.6875 Q339.6719,193.6875 340.3125,193.8594 Q340.9688,194.0156 341.5156,194.375 Z " fill="#000000"/><text fill="#000000" font-family="sans-serif" font-size="14" lengthAdjust="spacing" textLength="76" x="359.25" y="204.2285">JsonReader</text><line style="stroke:#181818;stroke-width:0.5;" x1="263.5" x2="498.5" y1="214.5" y2="214.5"/><line style="stroke:#181818;stroke-width:0.5;" x1="263.5" x2="498.5" y1="222.5" y2="222.5"/><ellipse cx="273.5" cy="236.8047" fill="#84BE84" rx="3" ry="3" style="stroke:#038048;stroke-width:1.0;"/><text fill="#000000" font-family="sans-serif" font-size="14" lengthAdjust="spacing" text-decoration="underline" textLength="211" x="282.5" y="241.0332">leerCochesJSON(String): Coche[]</text></g></a><!--class ual.hmis.sesion05.coches.Main--><a href="Main.html" target="_top" title="Main.html" xlink:actuate="onRequest" xlink:href="Main.html" xlink:show="new" xlink:title="Main.html" xlink:type="simple"><g id="elem_ual.hmis.sesion05.coches.Main"><rect codeLine="27" fill="#F1F1F1" height="65.6094" id="ual.hmis.sesion05.coches.Main" rx="2.5" ry="2.5" style="stroke:#181818;stroke-width:0.5;" width="145" x="52.5" y="449"/><ellipse cx="105.75" cy="465" fill="#ADD1B2" rx="11" ry="11" style="stroke:#181818;stroke-width:1.0;"/><path d="M108.5156,460.875 Q108.6719,460.6563 108.8594,460.5469 Q109.0469,460.4375 109.2656,460.4375 Q109.6406,460.4375 109.875,460.7031 Q110.1094,460.9531 110.1094,461.5625 L110.1094,463.0156 Q110.1094,463.625 109.875,463.8906 Q109.6406,464.1563 109.2656,464.1563 Q108.9219,464.1563 108.7188,463.9531 Q108.5156,463.7656 108.4063,463.25 Q108.3594,462.8906 108.1719,462.7031 Q107.8438,462.3281 107.2344,462.1094 Q106.625,461.8906 106,461.8906 Q105.2344,461.8906 104.5938,462.2188 Q103.9688,462.5469 103.4688,463.2969 Q102.9844,464.0469 102.9844,465.0781 L102.9844,466.1719 Q102.9844,467.4063 103.875,468.2344 Q104.7656,469.0469 106.3594,469.0469 Q107.2969,469.0469 107.9531,468.7969 Q108.3438,468.6406 108.7656,468.2031 Q109.0313,467.9375 109.1719,467.8594 Q109.3281,467.7813 109.5313,467.7813 Q109.8594,467.7813 110.1094,468.0469 Q110.375,468.2969 110.375,468.6406 Q110.375,468.9844 110.0313,469.3906 Q109.5313,469.9688 108.7344,470.2969 Q107.6563,470.75 106.3594,470.75 Q104.8438,470.75 103.6406,470.125 Q102.6563,469.625 101.9688,468.5625 Q101.2813,467.4844 101.2813,466.2031 L101.2813,465.0469 Q101.2813,463.7188 101.8906,462.5781 Q102.5156,461.4219 103.6094,460.8125 Q104.7031,460.1875 105.9375,460.1875 Q106.6719,460.1875 107.3125,460.3594 Q107.9688,460.5156 108.5156,460.875 Z " fill="#000000"/><text fill="#000000" font-family="sans-serif" font-size="14" lengthAdjust="spacing" textLength="30" x="126.25" y="470.7285">Main</text><line style="stroke:#181818;stroke-width:0.5;" x1="53.5" x2="196.5" y1="481" y2="481"/><line style="stroke:#181818;stroke-width:0.5;" x1="53.5" x2="196.5" y1="489" y2="489"/><ellipse cx="63.5" cy="503.3047" fill="#84BE84" rx="3" ry="3" style="stroke:#038048;stroke-width:1.0;"/><text fill="#000000" font-family="sans-serif" font-size="14" lengthAdjust="spacing" text-decoration="underline" textLength="119" x="72.5" y="507.5332">main(String[]): void</text></g></a><text fill="#888888" font-family="sans-serif" font-size="10" lengthAdjust="spacing" textLength="184" x="162.5" y="547.3809">UMLDoclet 2.1.0, PlantUML 1.2022.14</text><!--SRC=[XLEzRi8m4DvvYbig1K4ZMgbBjufEg1HKr2dAS9Y3k79icdDP40_LP-YBrNQ2AC6X7dBAVTzzz-Cp0836adYBWk0BLLgKabCcbaQF7b9XH44C-ruFcYCKCiFO-o7BWaqBMweyTopuSsvBh0G-mi9MKczQa5cHCd4CVxuT8hKzTsyh4Z823489IJ_chEM7SBGkDdnQv0tPgQyrwKSh6l0Hhq77sXcvkjG8JLqJgGdNLPvS-rxZeazkC5z_H-mypAWhka6xukdJNJydi-K72SzO6gC8zJcfG2x6here3clgrY8ZEBGNQC96ln6kg79RTFg9hzAUBLef3Z1GH5MuMvuiPg-dKGPVbdVdcwBKBfCt_-Ke7QTHplBsg1hXnWZIrdMmDiQRz-dBin6ABDodT-be27E5sZeltEoeyYygwVy2]--></g></svg>