<?xml version="1.0" encoding="UTF-8" standalone="no"?><svg xmlns="http://www.w3.org/2000/svg" xmlns:xlink="http://www.w3.org/1999/xlink" contentStyleType="text/css" height="274px" preserveAspectRatio="none" style="width:249px;height:274px;background:#FFFFFF;" version="1.1" viewBox="0 0 249 274" width="249px" zoomAndPan="magnify"><defs/><g><!--cluster ual.hmis.sesion05.ejercicio3--><g id="cluster_ual.hmis.sesion05.ejercicio3"><path d="M8.5,130 L207.5,130 A3.75,3.75 0 0 1 210,132.5 L217,153.6094 L239.5,153.6094 A2.5,2.5 0 0 1 242,156.1094 L242,245.5 A2.5,2.5 0 0 1 239.5,248 L8.5,248 A2.5,2.5 0 0 1 6,245.5 L6,132.5 A2.5,2.5 0 0 1 8.5,130 " fill="none" style="stroke:#000000;stroke-width:1.5;"/><line style="stroke:#000000;stroke-width:1.5;" x1="6" x2="217" y1="153.6094" y2="153.6094"/><text fill="#000000" font-family="sans-serif" font-size="14" font-weight="bold" lengthAdjust="spacing" textLength="198" x="10" y="146.5332">ual.hmis.sesion05.ejercicio3</text></g><!--cluster java.lang--><g id="cluster_java.lang"><path d="M73.5,6 L137.5,6 A3.75,3.75 0 0 1 140,8.5 L147,29.6094 L174.5,29.6094 A2.5,2.5 0 0 1 177,32.1094 L177,103.5 A2.5,2.5 0 0 1 174.5,106 L73.5,106 A2.5,2.5 0 0 1 71,103.5 L71,8.5 A2.5,2.5 0 0 1 73.5,6 " fill="none" style="stroke:#000000;stroke-width:1.5;"/><line style="stroke:#000000;stroke-width:1.5;" x1="71" x2="147" y1="29.6094" y2="29.6094"/><text fill="#000000" font-family="sans-serif" font-size="14" font-weight="bold" lengthAdjust="spacing" textLength="63" x="75" y="22.5332">java.lang</text></g><!--class ual.hmis.sesion05.ejercicio3.Ejercicio3--><a href="Ejercicio3.html" target="_top" title="Ejercicio3.html" xlink:actuate="onRequest" xlink:href="Ejercicio3.html" xlink:show="new" xlink:title="Ejercicio3.html" xlink:type="simple"><g id="elem_ual.hmis.sesion05.ejercicio3.Ejercicio3"><rect codeLine="3" fill="#F1F1F1" height="65.6094" id="ual.hmis.sesion05.ejercicio3.Ejercicio3" rx="2.5" ry="2.5" style="stroke:#181818;stroke-width:0.5;" width="204" x="22" y="166"/><ellipse cx="89.25" cy="182" fill="#ADD1B2" rx="11" ry="11" style="stroke:#181818;stroke-width:1.0;"/><path d="M92.0156,177.875 Q92.1719,177.6563 92.3594,177.5469 Q92.5469,177.4375 92.7656,177.4375 Q93.1406,177.4375 93.375,177.7031 Q93.6094,177.9531 93.6094,178.5625 L93.6094,180.0156 Q93.6094,180.625 93.375,180.8906 Q93.1406,181.1563 92.7656,181.1563 Q92.4219,181.1563 92.2188,180.9531 Q92.0156,180.7656 91.9063,180.25 Q91.8594,179.8906 91.6719,179.7031 Q91.3438,179.3281 90.7344,179.1094 Q90.125,178.8906 89.5,178.8906 Q88.7344,178.8906 88.0938,179.2188 Q87.4688,179.5469 86.9688,180.2969 Q86.4844,181.0469 86.4844,182.0781 L86.4844,183.1719 Q86.4844,184.4063 87.375,185.2344 Q88.2656,186.0469 89.8594,186.0469 Q90.7969,186.0469 91.4531,185.7969 Q91.8438,185.6406 92.2656,185.2031 Q92.5313,184.9375 92.6719,184.8594 Q92.8281,184.7813 93.0313,184.7813 Q93.3594,184.7813 93.6094,185.0469 Q93.875,185.2969 93.875,185.6406 Q93.875,185.9844 93.5313,186.3906 Q93.0313,186.9688 92.2344,187.2969 Q91.1563,187.75 89.8594,187.75 Q88.3438,187.75 87.1406,187.125 Q86.1563,186.625 85.4688,185.5625 Q84.7813,184.4844 84.7813,183.2031 L84.7813,182.0469 Q84.7813,180.7188 85.3906,179.5781 Q86.0156,178.4219 87.1094,177.8125 Q88.2031,177.1875 89.4375,177.1875 Q90.1719,177.1875 90.8125,177.3594 Q91.4688,177.5156 92.0156,177.875 Z " fill="#000000"/><text fill="#000000" font-family="sans-serif" font-size="14" lengthAdjust="spacing" textLength="61" x="109.75" y="187.7285">Ejercicio3</text><line style="stroke:#181818;stroke-width:0.5;" x1="23" x2="225" y1="198" y2="198"/><line style="stroke:#181818;stroke-width:0.5;" x1="23" x2="225" y1="206" y2="206"/><ellipse cx="33" cy="220.3047" fill="#84BE84" rx="3" ry="3" style="stroke:#038048;stroke-width:1.0;"/><text fill="#000000" font-family="sans-serif" font-size="14" lengthAdjust="spacing" textLength="178" x="42" y="224.5332">enmascarado(String): String</text></g></a><!--class java.lang.Object--><g id="elem_java.lang.Object"><rect codeLine="11" fill="#F1F1F1" height="48" id="java.lang.Object" rx="2.5" ry="2.5" style="stroke:#181818;stroke-width:0.5;" width="73" x="87.5" y="42"/><ellipse cx="102.5" cy="58" fill="#ADD1B2" rx="11" ry="11" style="stroke:#181818;stroke-width:1.0;"/><path d="M105.2656,53.875 Q105.4219,53.6563 105.6094,53.5469 Q105.7969,53.4375 106.0156,53.4375 Q106.3906,53.4375 106.625,53.7031 Q106.8594,53.9531 106.8594,54.5625 L106.8594,56.0156 Q106.8594,56.625 106.625,56.8906 Q106.3906,57.1563 106.0156,57.1563 Q105.6719,57.1563 105.4688,56.9531 Q105.2656,56.7656 105.1563,56.25 Q105.1094,55.8906 104.9219,55.7031 Q104.5938,55.3281 103.9844,55.1094 Q103.375,54.8906 102.75,54.8906 Q101.9844,54.8906 101.3438,55.2188 Q100.7188,55.5469 100.2188,56.2969 Q99.7344,57.0469 99.7344,58.0781 L99.7344,59.1719 Q99.7344,60.4063 100.625,61.2344 Q101.5156,62.0469 103.1094,62.0469 Q104.0469,62.0469 104.7031,61.7969 Q105.0938,61.6406 105.5156,61.2031 Q105.7813,60.9375 105.9219,60.8594 Q106.0781,60.7813 106.2813,60.7813 Q106.6094,60.7813 106.8594,61.0469 Q107.125,61.2969 107.125,61.6406 Q107.125,61.9844 106.7813,62.3906 Q106.2813,62.9688 105.4844,63.2969 Q104.4063,63.75 103.1094,63.75 Q101.5938,63.75 100.3906,63.125 Q99.4063,62.625 98.7188,61.5625 Q98.0313,60.4844 98.0313,59.2031 L98.0313,58.0469 Q98.0313,56.7188 98.6406,55.5781 Q99.2656,54.4219 100.3594,53.8125 Q101.4531,53.1875 102.6875,53.1875 Q103.4219,53.1875 104.0625,53.3594 Q104.7188,53.5156 105.2656,53.875 Z " fill="#000000"/><text fill="#000000" font-family="sans-serif" font-size="14" lengthAdjust="spacing" textLength="41" x="116.5" y="63.7285">Object</text><line style="stroke:#181818;stroke-width:0.5;" x1="88.5" x2="159.5" y1="74" y2="74"/><line style="stroke:#181818;stroke-width:0.5;" x1="88.5" x2="159.5" y1="82" y2="82"/></g><!--reverse link java.lang.Object to ual.hmis.sesion05.ejercicio3.Ejercicio3--><g id="link_java.lang.Object_ual.hmis.sesion05.ejercicio3.Ejercicio3"><path codeLine="7" d="M124,110.16 C124,128.29 124,149.01 124,165.78 " fill="none" id="java.lang.Object-backto-ual.hmis.sesion05.ejercicio3.Ejercicio3" style="stroke:#181818;stroke-width:1.0;"/><polygon fill="none" points="117,110.12,124,90.12,131,110.12,117,110.12" style="stroke:#181818;stroke-width:1.0;"/></g><text fill="#888888" font-family="sans-serif" font-size="10" lengthAdjust="spacing" textLength="184" x="25.5" y="264.3809">UMLDoclet 2.1.0, PlantUML 1.2022.14</text><!--SRC=[JL2x3i8m3Dpx5LwGMa6Z0c91ZB21G49CLGSJJ9ig3vI4Bi2_qwg8n8jVTpxR000Q5Ra7Se8dIjOeuPWZ9umkLenQibnmOPRmIXBu6PVe7En2hon3mXglP5NrU8XiIbgXusZnPjApjqBNsHh6u0_y18aMEsGITSsErvQuXyqxpoF99CA70_wiI7rSTfmIipXfJnRknWpkSjXl3PVaOS7ch9Z1gH_Z-ofCEhB3DzBi2m00]--></g></svg>